<svg xmlns="http://www.w3.org/2000/svg" width="1120" height="844" viewBox="0 0 1120 844" font-family="-apple-system, 'Segoe UI', system-ui, Roboto, 'Noto Sans SC', sans-serif"><rect width="1120" height="844" fill="#1f1f1f"/><rect width="1120" height="36" fill="#181818"/><line x1="0" y1="36" x2="1120" y2="36" stroke="#2b2b2b"/><text x="16" y="23" font-size="13" font-weight="600" fill="#cccccc">ctiming report</text><text x="1104" y="23" font-size="12" fill="#9d9d9d" text-anchor="end">/home/sixz/project/Timing/build/example_complex · 154 frames</text><rect y="36" width="1120" height="34" fill="#181818"/><line x1="0" y1="70" x2="1120" y2="70" stroke="#2b2b2b"/><text x="20" y="58" font-size="13" fill="#9d9d9d">概览</text><text x="62" y="58" font-size="13" fill="#ffffff">火焰图</text><rect x="58" y="66" width="47" height="2" fill="#0078d4"/><text x="117" y="58" font-size="13" fill="#9d9d9d">调用关系图</text><text x="198" y="58" font-size="13" fill="#9d9d9d">单次追踪</text><text x="266" y="58" font-size="13" fill="#9d9d9d">调用者/被调用者</text><text x="16" y="94" font-size="13" fill="#9d9d9d">全部 &gt; <tspan fill="#4daafc">demo::worker(int, int)</tspan></text><text x="1104" y="94" font-size="12" fill="#9d9d9d" text-anchor="end">缩放 ×1.0</text><rect x="213.9" y="106" width="890.1" height="20" rx="3" fill="#f14c4c"/><text x="217.9" y="121" font-size="11" fill="#0b101f">main</text><rect x="213.9" y="128" width="1.0" height="20" rx="3" fill="#6796e6"/><rect x="214.3" y="128" width="1.0" height="20" rx="3" fill="#6796e6"/><rect x="214.3" y="150" width="1.0" height="20" rx="3" fill="#6796e6"/><rect x="214.3" y="128" width="1.0" height="20" rx="3" fill="#6796e6"/><rect x="214.3" y="150" width="1.0" height="20" rx="3" fill="#6796e6"/><rect x="214.4" y="128" width="81.6" height="20" rx="3" fill="#4ec9b0"/><text x="218.4" y="143" font-size="11" fill="#0b101f">demo::Pipe…</text><rect x="214.4" y="150" width="5.5" height="20" rx="3" fill="#6796e6"/><rect x="214.4" y="172" width="5.5" height="20" rx="3" fill="#6796e6"/><rect x="219.9" y="150" width="75.5" height="20" rx="3" fill="#4ec9b0"/><text x="223.9" y="165" font-size="11" fill="#0b101f">demo::Red…</text><rect x="219.9" y="172" width="60.9" height="20" rx="3" fill="#4ec9b0"/><rect x="280.8" y="172" width="1.0" height="20" rx="3" fill="#6796e6"/><rect x="296.0" y="128" width="116.8" height="20" rx="3" fill="#4ec9b0"/><text x="300.0" y="143" font-size="11" fill="#0b101f">demo::fib(int)</text><rect x="296.0" y="150" width="116.8" height="20" rx="3" fill="#4ec9b0"/><text x="300.0" y="165" font-size="11" fill="#0b101f">demo::fib(int)</text><rect x="296.0" y="172" width="116.7" height="20" rx="3" fill="#4ec9b0"/><text x="300.0" y="187" font-size="11" fill="#0b101f">demo::fib(int)</text><rect x="296.0" y="194" width="116.7" height="20" rx="3" fill="#4ec9b0"/><text x="300.0" y="209" font-size="11" fill="#0b101f">demo::fib(int)</text><rect x="296.0" y="216" width="116.6" height="20" rx="3" fill="#4ec9b0"/><text x="300.0" y="231" font-size="11" fill="#0b101f">demo::fib(int)</text><rect x="296.0" y="238" width="116.2" height="20" rx="3" fill="#4ec9b0"/><text x="300.0" y="253" font-size="11" fill="#0b101f">demo::fib(int)</text><rect x="296.0" y="260" width="115.9" height="20" rx="3" fill="#4ec9b0"/><text x="300.0" y="275" font-size="11" fill="#0b101f">demo::fib(int)</text><rect x="296.0" y="282" width="114.6" height="20" rx="3" fill="#4ec9b0"/><text x="300.0" y="297" font-size="11" fill="#0b101f">demo::fib(int)</text><rect x="296.0" y="304" width="113.1" height="20" rx="3" fill="#4ec9b0"/><text x="300.0" y="319" font-size="11" fill="#0b101f">demo::fib(int)</text><rect x="296.0" y="326" width="109.5" height="20" rx="3" fill="#4ec9b0"/><text x="300.0" y="341" font-size="11" fill="#0b101f">demo::fib(int)</text><rect x="296.0" y="348" width="104.0" height="20" rx="3" fill="#4ec9b0"/><text x="300.0" y="363" font-size="11" fill="#0b101f">demo::fib(int)</text><rect x="296.0" y="370" width="88.9" height="20" rx="3" fill="#4ec9b0"/><text x="300.0" y="385" font-size="11" fill="#0b101f">demo::fib(i…</text><rect x="296.0" y="392" width="71.6" height="20" rx="3" fill="#4ec9b0"/><text x="300.0" y="407" font-size="11" fill="#0b101f">demo::fib…</text><rect x="296.0" y="414" width="40.5" height="20" rx="3" fill="#6796e6"/><rect x="296.0" y="436" width="21.3" height="20" rx="3" fill="#6796e6"/><rect x="296.0" y="458" width="5.9" height="20" rx="3" fill="#6796e6"/><rect x="296.0" y="480" width="1.6" height="20" rx="3" fill="#6796e6"/><rect x="296.0" y="502" width="1.0" height="20" rx="3" fill="#6796e6"/><rect x="296.0" y="524" width="1.0" height="20" rx="3" fill="#6796e6"/><rect x="412.8" y="128" width="1.0" height="20" rx="3" fill="#6796e6"/><rect x="412.8" y="150" width="1.0" height="20" rx="3" fill="#6796e6"/><rect x="412.8" y="172" width="1.0" height="20" rx="3" fill="#6796e6"/><rect x="412.8" y="194" width="1.0" height="20" rx="3" fill="#6796e6"/><rect x="412.8" y="216" width="1.0" height="20" rx="3" fill="#6796e6"/><rect x="412.8" y="238" width="1.0" height="20" rx="3" fill="#6796e6"/><rect x="412.8" y="260" width="1.0" height="20" rx="3" fill="#6796e6"/><rect x="412.8" y="282" width="1.0" height="20" rx="3" fill="#6796e6"/><rect x="412.8" y="304" width="1.0" height="20" rx="3" fill="#6796e6"/><rect x="412.8" y="326" width="1.0" height="20" rx="3" fill="#6796e6"/><rect x="412.8" y="348" width="1.0" height="20" rx="3" fill="#6796e6"/><rect x="412.8" y="370" width="1.0" height="20" rx="3" fill="#6796e6"/><rect x="412.8" y="392" width="1.0" height="20" rx="3" fill="#6796e6"/><rect x="412.8" y="414" width="1.0" height="20" rx="3" fill="#6796e6"/><rect x="412.8" y="436" width="1.0" height="20" rx="3" fill="#6796e6"/><rect x="412.8" y="458" width="1.0" height="20" rx="3" fill="#6796e6"/><rect x="412.8" y="480" width="1.0" height="20" rx="3" fill="#6796e6"/><rect x="412.8" y="502" width="1.0" height="20" rx="3" fill="#6796e6"/><rect x="412.8" y="524" width="1.0" height="20" rx="3" fill="#6796e6"/><rect x="412.8" y="546" width="1.0" height="20" rx="3" fill="#6796e6"/><rect x="412.8" y="568" width="1.0" height="20" rx="3" fill="#6796e6"/><rect x="412.8" y="590" width="1.0" height="20" rx="3" fill="#6796e6"/><rect x="412.8" y="612" width="1.0" height="20" rx="3" fill="#6796e6"/><rect x="412.8" y="634" width="1.0" height="20" rx="3" fill="#6796e6"/><rect x="412.8" y="656" width="1.0" height="20" rx="3" fill="#6796e6"/><rect x="412.8" y="678" width="1.0" height="20" rx="3" fill="#6796e6"/><rect x="412.8" y="700" width="1.0" height="20" rx="3" fill="#6796e6"/><rect x="412.8" y="722" width="1.0" height="20" rx="3" fill="#6796e6"/><rect x="412.8" y="744" width="1.0" height="20" rx="3" fill="#6796e6"/><rect x="412.8" y="766" width="1.0" height="20" rx="3" fill="#6796e6"/><rect x="412.8" y="788" width="1.0" height="20" rx="3" fill="#6796e6"/><rect x="413.2" y="128" width="1.0" height="20" rx="3" fill="#6796e6"/><rect x="413.2" y="150" width="1.0" height="20" rx="3" fill="#6796e6"/><rect x="413.2" y="172" width="1.0" height="20" rx="3" fill="#6796e6"/><rect x="413.2" y="194" width="1.0" height="20" rx="3" fill="#6796e6"/><rect x="413.2" y="216" width="1.0" height="20" rx="3" fill="#6796e6"/><rect x="413.2" y="238" width="1.0" height="20" rx="3" fill="#6796e6"/><rect x="413.2" y="260" width="1.0" height="20" rx="3" fill="#6796e6"/><rect x="413.2" y="282" width="1.0" height="20" rx="3" fill="#6796e6"/><rect x="413.2" y="304" width="1.0" height="20" rx="3" fill="#6796e6"/><rect x="413.2" y="326" width="1.0" height="20" rx="3" fill="#6796e6"/><rect x="413.2" y="348" width="1.0" height="20" rx="3" fill="#6796e6"/><rect x="413.2" y="370" width="1.0" height="20" rx="3" fill="#6796e6"/><rect x="413.2" y="392" width="1.0" height="20" rx="3" fill="#6796e6"/><rect x="413.2" y="414" width="1.0" height="20" rx="3" fill="#6796e6"/><rect x="413.2" y="436" width="1.0" height="20" rx="3" fill="#6796e6"/><rect x="413.2" y="458" width="1.0" height="20" rx="3" fill="#6796e6"/><rect x="413.2" y="480" width="1.0" height="20" rx="3" fill="#6796e6"/><rect x="413.2" y="502" width="1.0" height="20" rx="3" fill="#6796e6"/><rect x="413.2" y="524" width="1.0" height="20" rx="3" fill="#6796e6"/><rect x="413.2" y="546" width="1.0" height="20" rx="3" fill="#6796e6"/><rect x="413.2" y="568" width="1.0" height="20" rx="3" fill="#6796e6"/><rect x="413.2" y="590" width="1.0" height="20" rx="3" fill="#6796e6"/><rect x="413.2" y="612" width="1.0" height="20" rx="3" fill="#6796e6"/><rect x="413.2" y="634" width="1.0" height="20" rx="3" fill="#6796e6"/><rect x="413.2" y="656" width="1.0" height="20" rx="3" fill="#6796e6"/><rect x="413.2" y="678" width="1.0" height="20" rx="3" fill="#6796e6"/><rect x="413.2" y="700" width="1.0" height="20" rx="3" fill="#6796e6"/><rect x="413.2" y="722" width="1.0" height="20" rx="3" fill="#6796e6"/><rect x="413.2" y="744" width="1.0" height="20" rx="3" fill="#6796e6"/><rect x="413.2" y="766" width="1.0" height="20" rx="3" fill="#6796e6"/><rect x="413.4" y="128" width="548.7" height="20" rx="3" fill="#f14c4c"/><text x="417.4" y="143" font-size="11" fill="#0b101f">demo::simulated_io(int)</text><rect x="962.1" y="128" width="1.0" height="20" rx="3" fill="#6796e6"/><rect x="962.1" y="150" width="1.0" height="20" rx="3" fill="#6796e6"/><rect x="962.2" y="128" width="1.0" height="20" rx="3" fill="#6796e6"/><rect x="962.2" y="150" width="1.0" height="20" rx="3" fill="#6796e6"/><rect x="962.2" y="128" width="1.0" height="20" rx="3" fill="#6796e6"/><rect x="16.0" y="106" width="197.9" height="20" rx="3" fill="#4ec9b0"/><text x="20.0" y="121" font-size="11" fill="#0b101f">demo::worker(int, int)</text><rect x="16.0" y="128" width="1.7" height="20" rx="3" fill="#6796e6"/><rect x="17.7" y="128" width="1.0" height="20" rx="3" fill="#6796e6"/><rect x="17.7" y="150" width="1.0" height="20" rx="3" fill="#6796e6"/><rect x="18.0" y="128" width="1.0" height="20" rx="3" fill="#6796e6"/><rect x="18.0" y="150" width="1.0" height="20" rx="3" fill="#6796e6"/><rect x="18.3" y="128" width="147.3" height="20" rx="3" fill="#4ec9b0"/><text x="22.3" y="143" font-size="11" fill="#0b101f">demo::Pipeline::run(d…</text><rect x="18.3" y="150" width="8.8" height="20" rx="3" fill="#6796e6"/><rect x="18.3" y="172" width="8.0" height="20" rx="3" fill="#6796e6"/><rect x="27.1" y="150" width="135.8" height="20" rx="3" fill="#4ec9b0"/><text x="31.1" y="165" font-size="11" fill="#0b101f">demo::ReduceStage::…</text><rect x="27.1" y="172" width="101.1" height="20" rx="3" fill="#4ec9b0"/><text x="31.1" y="187" font-size="11" fill="#0b101f">double demo::…</text><rect x="128.2" y="172" width="1.1" height="20" rx="3" fill="#6796e6"/><rect x="165.6" y="128" width="26.1" height="20" rx="3" fill="#6796e6"/><rect x="165.6" y="150" width="26.0" height="20" rx="3" fill="#6796e6"/><rect x="165.6" y="172" width="25.9" height="20" rx="3" fill="#6796e6"/><rect x="165.6" y="194" width="25.6" height="20" rx="3" fill="#6796e6"/><rect x="165.6" y="216" width="25.2" height="20" rx="3" fill="#6796e6"/><rect x="165.6" y="238" width="24.4" height="20" rx="3" fill="#6796e6"/><rect x="165.6" y="260" width="22.9" height="20" rx="3" fill="#6796e6"/><rect x="165.6" y="282" width="18.3" height="20" rx="3" fill="#6796e6"/><rect x="165.6" y="304" width="14.3" height="20" rx="3" fill="#6796e6"/><rect x="165.6" y="326" width="7.3" height="20" rx="3" fill="#6796e6"/><rect x="165.6" y="348" width="3.6" height="20" rx="3" fill="#6796e6"/><rect x="165.6" y="370" width="1.0" height="20" rx="3" fill="#6796e6"/><rect x="165.6" y="392" width="1.0" height="20" rx="3" fill="#6796e6"/><rect x="165.6" y="414" width="1.0" height="20" rx="3" fill="#6796e6"/><rect x="191.7" y="128" width="1.1" height="20" rx="3" fill="#6796e6"/><rect x="191.7" y="150" width="1.0" height="20" rx="3" fill="#6796e6"/><rect x="191.7" y="172" width="1.0" height="20" rx="3" fill="#6796e6"/><rect x="191.7" y="194" width="1.0" height="20" rx="3" fill="#6796e6"/><rect x="191.7" y="216" width="1.0" height="20" rx="3" fill="#6796e6"/><rect x="191.7" y="238" width="1.0" height="20" rx="3" fill="#6796e6"/><rect x="191.7" y="260" width="1.0" height="20" rx="3" fill="#6796e6"/><rect x="191.7" y="282" width="1.0" height="20" rx="3" fill="#6796e6"/><rect x="191.7" y="304" width="1.0" height="20" rx="3" fill="#6796e6"/><rect x="191.7" y="326" width="1.0" height="20" rx="3" fill="#6796e6"/><rect x="191.7" y="348" width="1.0" height="20" rx="3" fill="#6796e6"/><rect x="191.7" y="370" width="1.0" height="20" rx="3" fill="#6796e6"/><rect x="191.7" y="392" width="1.0" height="20" rx="3" fill="#6796e6"/><rect x="191.7" y="414" width="1.0" height="20" rx="3" fill="#6796e6"/><rect x="191.7" y="436" width="1.0" height="20" rx="3" fill="#6796e6"/><rect x="191.7" y="458" width="1.0" height="20" rx="3" fill="#6796e6"/><rect x="191.7" y="480" width="1.0" height="20" rx="3" fill="#6796e6"/><rect x="191.7" y="502" width="1.0" height="20" rx="3" fill="#6796e6"/><rect x="191.7" y="524" width="1.0" height="20" rx="3" fill="#6796e6"/><rect x="191.7" y="546" width="1.0" height="20" rx="3" fill="#6796e6"/><rect x="191.7" y="568" width="1.0" height="20" rx="3" fill="#6796e6"/><rect x="191.7" y="590" width="1.0" height="20" rx="3" fill="#6796e6"/><rect x="191.7" y="612" width="1.0" height="20" rx="3" fill="#6796e6"/><rect x="191.7" y="634" width="1.0" height="20" rx="3" fill="#6796e6"/><rect x="191.7" y="656" width="1.0" height="20" rx="3" fill="#6796e6"/><rect x="192.8" y="128" width="1.0" height="20" rx="3" fill="#6796e6"/><rect x="192.8" y="150" width="1.0" height="20" rx="3" fill="#6796e6"/><rect x="193.1" y="128" width="1.0" height="20" rx="3" fill="#6796e6"/><rect x="193.1" y="150" width="1.0" height="20" rx="3" fill="#6796e6"/><rect x="193.1" y="128" width="1.9" height="20" rx="3" fill="#6796e6"/><text x="16" y="830" font-size="12" fill="#9d9d9d">宽度=累计耗时；滚轮缩放、拖动平移；点击下钻，点击叶子查看调用者/被调用者。</text></svg>
